<mxfile host="app.diagrams.net" modified="2024-05-03T17:36:02.029Z" agent="Mozilla/5.0 (Macintosh; Intel Mac OS X 10_15_7) AppleWebKit/605.1.15 (KHTML, like Gecko) Version/17.4.1 Safari/605.1.15" etag="pOD6LwDnXbwWIXotMTOq" version="24.3.1" type="device">
  <diagram name="Page-1" id="8r99jC3OTzS9Ob0etDOE">
    <mxGraphModel dx="1464" dy="959" grid="1" gridSize="10" guides="1" tooltips="1" connect="1" arrows="1" fold="1" page="1" pageScale="1" pageWidth="827" pageHeight="1169" math="0" shadow="0">
      <root>
        <mxCell id="0" />
        <mxCell id="1" parent="0" />
        <mxCell id="MK-3uhewQqFmc1FHeEV7-1" value="" style="rounded=1;whiteSpace=wrap;html=1;" vertex="1" parent="1">
          <mxGeometry x="230" y="390" width="680" height="510" as="geometry" />
        </mxCell>
        <mxCell id="MK-3uhewQqFmc1FHeEV7-2" value="&lt;font style=&quot;font-size: 24px;&quot;&gt;Main Module&lt;/font&gt;" style="text;html=1;align=center;verticalAlign=middle;whiteSpace=wrap;rounded=0;" vertex="1" parent="1">
          <mxGeometry x="480" y="410" width="180" height="30" as="geometry" />
        </mxCell>
        <mxCell id="MK-3uhewQqFmc1FHeEV7-3" value="" style="rounded=1;whiteSpace=wrap;html=1;" vertex="1" parent="1">
          <mxGeometry x="385" y="475" width="370" height="185" as="geometry" />
        </mxCell>
        <mxCell id="MK-3uhewQqFmc1FHeEV7-4" value="LFSR 2&lt;div&gt;Module&lt;/div&gt;" style="rounded=1;whiteSpace=wrap;html=1;" vertex="1" parent="1">
          <mxGeometry x="420" y="500" width="120" height="60" as="geometry" />
        </mxCell>
        <mxCell id="MK-3uhewQqFmc1FHeEV7-5" value="BIST Logic" style="text;html=1;align=center;verticalAlign=middle;whiteSpace=wrap;rounded=0;" vertex="1" parent="1">
          <mxGeometry x="420" y="470" width="100" height="30" as="geometry" />
        </mxCell>
        <mxCell id="MK-3uhewQqFmc1FHeEV7-6" value="LFSR 1&lt;div&gt;Module&lt;/div&gt;" style="rounded=1;whiteSpace=wrap;html=1;" vertex="1" parent="1">
          <mxGeometry x="420" y="580" width="120" height="60" as="geometry" />
        </mxCell>
        <mxCell id="MK-3uhewQqFmc1FHeEV7-48" style="edgeStyle=orthogonalEdgeStyle;rounded=0;orthogonalLoop=1;jettySize=auto;html=1;exitX=1;exitY=0.5;exitDx=0;exitDy=0;entryX=0.75;entryY=0;entryDx=0;entryDy=0;endArrow=none;endFill=0;" edge="1" parent="1" source="MK-3uhewQqFmc1FHeEV7-7" target="MK-3uhewQqFmc1FHeEV7-12">
          <mxGeometry relative="1" as="geometry" />
        </mxCell>
        <mxCell id="MK-3uhewQqFmc1FHeEV7-49" style="edgeStyle=orthogonalEdgeStyle;rounded=0;orthogonalLoop=1;jettySize=auto;html=1;exitX=0.5;exitY=1;exitDx=0;exitDy=0;endArrow=none;endFill=0;" edge="1" parent="1" source="MK-3uhewQqFmc1FHeEV7-7">
          <mxGeometry relative="1" as="geometry">
            <mxPoint x="740.0000000000002" y="760" as="targetPoint" />
          </mxGeometry>
        </mxCell>
        <mxCell id="MK-3uhewQqFmc1FHeEV7-7" value="CRC 8&lt;div&gt;Module&lt;/div&gt;" style="rounded=1;whiteSpace=wrap;html=1;" vertex="1" parent="1">
          <mxGeometry x="620" y="537.5" width="120" height="60" as="geometry" />
        </mxCell>
        <mxCell id="MK-3uhewQqFmc1FHeEV7-8" value="FUNC Module" style="rounded=1;whiteSpace=wrap;html=1;" vertex="1" parent="1">
          <mxGeometry x="440" y="710" width="260" height="100" as="geometry" />
        </mxCell>
        <mxCell id="MK-3uhewQqFmc1FHeEV7-44" style="edgeStyle=orthogonalEdgeStyle;rounded=0;orthogonalLoop=1;jettySize=auto;html=1;exitX=0.5;exitY=1;exitDx=0;exitDy=0;entryX=0;entryY=0.25;entryDx=0;entryDy=0;endArrow=none;endFill=0;" edge="1" parent="1" source="MK-3uhewQqFmc1FHeEV7-9" target="MK-3uhewQqFmc1FHeEV7-8">
          <mxGeometry relative="1" as="geometry" />
        </mxCell>
        <mxCell id="MK-3uhewQqFmc1FHeEV7-46" style="edgeStyle=orthogonalEdgeStyle;rounded=0;orthogonalLoop=1;jettySize=auto;html=1;exitX=0.75;exitY=0;exitDx=0;exitDy=0;entryX=0;entryY=0.5;entryDx=0;entryDy=0;endArrow=none;endFill=0;" edge="1" parent="1" source="MK-3uhewQqFmc1FHeEV7-9" target="MK-3uhewQqFmc1FHeEV7-4">
          <mxGeometry relative="1" as="geometry" />
        </mxCell>
        <mxCell id="MK-3uhewQqFmc1FHeEV7-9" value="" style="verticalLabelPosition=middle;verticalAlign=middle;html=1;shape=trapezoid;perimeter=trapezoidPerimeter;whiteSpace=wrap;size=0.23;arcSize=10;flipV=1;labelPosition=center;align=center;rotation=-90;" vertex="1" parent="1">
          <mxGeometry x="260" y="655" width="130" height="20" as="geometry" />
        </mxCell>
        <mxCell id="MK-3uhewQqFmc1FHeEV7-43" style="edgeStyle=orthogonalEdgeStyle;rounded=0;orthogonalLoop=1;jettySize=auto;html=1;exitX=0.5;exitY=1;exitDx=0;exitDy=0;entryX=0;entryY=0.5;entryDx=0;entryDy=0;endArrow=none;endFill=0;" edge="1" parent="1" source="MK-3uhewQqFmc1FHeEV7-11" target="MK-3uhewQqFmc1FHeEV7-8">
          <mxGeometry relative="1" as="geometry" />
        </mxCell>
        <mxCell id="MK-3uhewQqFmc1FHeEV7-45" style="edgeStyle=orthogonalEdgeStyle;rounded=0;orthogonalLoop=1;jettySize=auto;html=1;exitX=0.75;exitY=0;exitDx=0;exitDy=0;entryX=0;entryY=0.5;entryDx=0;entryDy=0;endArrow=none;endFill=0;" edge="1" parent="1" source="MK-3uhewQqFmc1FHeEV7-11" target="MK-3uhewQqFmc1FHeEV7-6">
          <mxGeometry relative="1" as="geometry">
            <Array as="points">
              <mxPoint x="265" y="758" />
              <mxPoint x="265" y="590" />
              <mxPoint x="420" y="590" />
            </Array>
          </mxGeometry>
        </mxCell>
        <mxCell id="MK-3uhewQqFmc1FHeEV7-11" value="" style="verticalLabelPosition=middle;verticalAlign=middle;html=1;shape=trapezoid;perimeter=trapezoidPerimeter;whiteSpace=wrap;size=0.23;arcSize=10;flipV=1;labelPosition=center;align=center;rotation=-90;" vertex="1" parent="1">
          <mxGeometry x="230" y="780" width="130" height="20" as="geometry" />
        </mxCell>
        <mxCell id="MK-3uhewQqFmc1FHeEV7-50" style="edgeStyle=orthogonalEdgeStyle;rounded=0;orthogonalLoop=1;jettySize=auto;html=1;endArrow=none;endFill=0;" edge="1" parent="1" source="MK-3uhewQqFmc1FHeEV7-12" target="MK-3uhewQqFmc1FHeEV7-27">
          <mxGeometry relative="1" as="geometry" />
        </mxCell>
        <mxCell id="MK-3uhewQqFmc1FHeEV7-55" style="edgeStyle=orthogonalEdgeStyle;rounded=0;orthogonalLoop=1;jettySize=auto;html=1;entryX=0;entryY=0.5;entryDx=0;entryDy=0;endArrow=none;endFill=0;" edge="1" parent="1" source="MK-3uhewQqFmc1FHeEV7-12" target="MK-3uhewQqFmc1FHeEV7-24">
          <mxGeometry relative="1" as="geometry" />
        </mxCell>
        <mxCell id="MK-3uhewQqFmc1FHeEV7-12" value="" style="verticalLabelPosition=middle;verticalAlign=middle;html=1;shape=trapezoid;perimeter=trapezoidPerimeter;whiteSpace=wrap;size=0.23;arcSize=10;flipV=1;labelPosition=center;align=center;rotation=-90;" vertex="1" parent="1">
          <mxGeometry x="800" y="675" width="130" height="20" as="geometry" />
        </mxCell>
        <mxCell id="MK-3uhewQqFmc1FHeEV7-39" style="edgeStyle=orthogonalEdgeStyle;rounded=0;orthogonalLoop=1;jettySize=auto;html=1;entryX=0.25;entryY=0;entryDx=0;entryDy=0;endArrow=none;endFill=0;" edge="1" parent="1" source="MK-3uhewQqFmc1FHeEV7-15" target="MK-3uhewQqFmc1FHeEV7-9">
          <mxGeometry relative="1" as="geometry" />
        </mxCell>
        <mxCell id="MK-3uhewQqFmc1FHeEV7-15" value="&lt;div&gt;&lt;span style=&quot;font-size: 12px;&quot;&gt;SWO (J15) - b_bi[0]&lt;/span&gt;&lt;br&gt;&lt;/div&gt;&lt;div&gt;&lt;div&gt;SW1 (L16) - b_bi[1]&lt;/div&gt;&lt;div&gt;SW2 (M13) - b_bi[2]&lt;/div&gt;&lt;div&gt;SW3 (R15) - b_bi[3]&lt;/div&gt;&lt;div&gt;SW4 (R17) - b_bi[4]&lt;/div&gt;&lt;div&gt;SW5 (T18) - b_bi[5]&lt;/div&gt;&lt;div&gt;SW6 (U18) - b_bi[6]&lt;/div&gt;&lt;div&gt;SW7 (R13) - b_bi[7]&lt;/div&gt;&lt;/div&gt;" style="rounded=1;whiteSpace=wrap;html=1;" vertex="1" parent="1">
          <mxGeometry x="70" y="650" width="120" height="150" as="geometry" />
        </mxCell>
        <mxCell id="MK-3uhewQqFmc1FHeEV7-40" style="edgeStyle=orthogonalEdgeStyle;rounded=0;orthogonalLoop=1;jettySize=auto;html=1;entryX=0.25;entryY=0;entryDx=0;entryDy=0;endArrow=none;endFill=0;" edge="1" parent="1" source="MK-3uhewQqFmc1FHeEV7-16" target="MK-3uhewQqFmc1FHeEV7-11">
          <mxGeometry relative="1" as="geometry" />
        </mxCell>
        <mxCell id="MK-3uhewQqFmc1FHeEV7-16" value="&lt;div style=&quot;font-size: 11px;&quot;&gt;&lt;font style=&quot;font-size: 11px;&quot;&gt;SW8 (T8) - a_bi[8]&lt;/font&gt;&lt;/div&gt;&lt;div style=&quot;font-size: 11px;&quot;&gt;&lt;font style=&quot;font-size: 11px;&quot;&gt;SW9(U8) - a_bil9]&lt;/font&gt;&lt;/div&gt;&lt;div style=&quot;font-size: 11px;&quot;&gt;&lt;font style=&quot;font-size: 11px;&quot;&gt;SW10 (R16) - a_bi[10]&lt;/font&gt;&lt;/div&gt;&lt;div style=&quot;font-size: 11px;&quot;&gt;&lt;font style=&quot;font-size: 11px;&quot;&gt;SW11 (T13) - a_bi[11]&lt;/font&gt;&lt;/div&gt;&lt;div style=&quot;font-size: 11px;&quot;&gt;&lt;font style=&quot;font-size: 11px;&quot;&gt;SW12 (H6) - a_bi[12]&lt;/font&gt;&lt;/div&gt;&lt;div style=&quot;font-size: 11px;&quot;&gt;&lt;font style=&quot;font-size: 11px;&quot;&gt;SW13 (U12) - a_bi[13]&lt;/font&gt;&lt;/div&gt;&lt;div style=&quot;font-size: 11px;&quot;&gt;&lt;font style=&quot;font-size: 11px;&quot;&gt;SW14 (U11) - a_bi[14]&lt;/font&gt;&lt;/div&gt;&lt;div style=&quot;font-size: 11px;&quot;&gt;&lt;font style=&quot;font-size: 11px;&quot;&gt;SW15 (V10) - a_bi[15]&lt;/font&gt;&lt;/div&gt;" style="rounded=1;whiteSpace=wrap;html=1;" vertex="1" parent="1">
          <mxGeometry x="70" y="810" width="120" height="130" as="geometry" />
        </mxCell>
        <mxCell id="MK-3uhewQqFmc1FHeEV7-17" value="test_mode&lt;div&gt;BTNU (M18)&lt;/div&gt;" style="rounded=1;whiteSpace=wrap;html=1;" vertex="1" parent="1">
          <mxGeometry x="70" y="405" width="70" height="40" as="geometry" />
        </mxCell>
        <mxCell id="MK-3uhewQqFmc1FHeEV7-18" value="clk_i (E3)" style="rounded=1;whiteSpace=wrap;html=1;" vertex="1" parent="1">
          <mxGeometry x="70" y="460" width="70" height="40" as="geometry" />
        </mxCell>
        <mxCell id="MK-3uhewQqFmc1FHeEV7-19" value="rst_i&lt;div&gt;BTNR (M17)&lt;/div&gt;" style="rounded=1;whiteSpace=wrap;html=1;" vertex="1" parent="1">
          <mxGeometry x="70" y="520" width="80" height="40" as="geometry" />
        </mxCell>
        <mxCell id="MK-3uhewQqFmc1FHeEV7-32" value="" style="edgeStyle=orthogonalEdgeStyle;rounded=0;orthogonalLoop=1;jettySize=auto;html=1;endArrow=none;endFill=0;" edge="1" parent="1" source="MK-3uhewQqFmc1FHeEV7-20">
          <mxGeometry relative="1" as="geometry">
            <mxPoint x="230" y="600" as="targetPoint" />
          </mxGeometry>
        </mxCell>
        <mxCell id="MK-3uhewQqFmc1FHeEV7-20" value="start_i&lt;div&gt;BTNC (N17)&lt;/div&gt;" style="rounded=1;whiteSpace=wrap;html=1;" vertex="1" parent="1">
          <mxGeometry x="70" y="580" width="70" height="40" as="geometry" />
        </mxCell>
        <mxCell id="MK-3uhewQqFmc1FHeEV7-21" value="&lt;div&gt;busy_o&lt;/div&gt;&lt;div&gt;LD15 (V11)&lt;/div&gt;" style="rounded=1;whiteSpace=wrap;html=1;" vertex="1" parent="1">
          <mxGeometry x="1030" y="395" width="80" height="60" as="geometry" />
        </mxCell>
        <mxCell id="MK-3uhewQqFmc1FHeEV7-53" style="edgeStyle=orthogonalEdgeStyle;rounded=0;orthogonalLoop=1;jettySize=auto;html=1;exitX=0;exitY=0.5;exitDx=0;exitDy=0;endArrow=none;endFill=0;" edge="1" parent="1" source="MK-3uhewQqFmc1FHeEV7-23">
          <mxGeometry relative="1" as="geometry">
            <mxPoint x="920.0000000000002" y="850.1666666666667" as="targetPoint" />
          </mxGeometry>
        </mxCell>
        <mxCell id="MK-3uhewQqFmc1FHeEV7-23" value="freq_div" style="rounded=1;whiteSpace=wrap;html=1;" vertex="1" parent="1">
          <mxGeometry x="960" y="820" width="80" height="60" as="geometry" />
        </mxCell>
        <mxCell id="MK-3uhewQqFmc1FHeEV7-56" style="edgeStyle=orthogonalEdgeStyle;rounded=0;orthogonalLoop=1;jettySize=auto;html=1;entryX=0;entryY=0.5;entryDx=0;entryDy=0;endArrow=none;endFill=0;" edge="1" parent="1" source="MK-3uhewQqFmc1FHeEV7-24" target="MK-3uhewQqFmc1FHeEV7-25">
          <mxGeometry relative="1" as="geometry" />
        </mxCell>
        <mxCell id="MK-3uhewQqFmc1FHeEV7-58" style="edgeStyle=orthogonalEdgeStyle;rounded=0;orthogonalLoop=1;jettySize=auto;html=1;exitX=0.5;exitY=1;exitDx=0;exitDy=0;entryX=0.5;entryY=0;entryDx=0;entryDy=0;endArrow=none;endFill=0;" edge="1" parent="1" source="MK-3uhewQqFmc1FHeEV7-24" target="MK-3uhewQqFmc1FHeEV7-23">
          <mxGeometry relative="1" as="geometry" />
        </mxCell>
        <mxCell id="MK-3uhewQqFmc1FHeEV7-24" value="&lt;div&gt;7-led&lt;/div&gt;&lt;div&gt;module&lt;/div&gt;" style="rounded=1;whiteSpace=wrap;html=1;" vertex="1" parent="1">
          <mxGeometry x="960" y="720" width="80" height="60" as="geometry" />
        </mxCell>
        <mxCell id="MK-3uhewQqFmc1FHeEV7-25" value="&lt;div&gt;CA (T10)&lt;/div&gt;&lt;div&gt;CB (R10)&lt;/div&gt;&lt;div&gt;CC (K16)&lt;/div&gt;&lt;div&gt;CD (K13)&lt;/div&gt;&lt;div&gt;CE (P15)&lt;/div&gt;&lt;div&gt;CF (T11)&lt;/div&gt;&lt;div&gt;CG (L18)&lt;/div&gt;" style="rounded=1;whiteSpace=wrap;html=1;" vertex="1" parent="1">
          <mxGeometry x="1100" y="670" width="80" height="110" as="geometry" />
        </mxCell>
        <mxCell id="MK-3uhewQqFmc1FHeEV7-26" value="&lt;div&gt;ANO (J17)&lt;/div&gt;&lt;div&gt;AN1 (J18)&lt;/div&gt;&lt;div&gt;AN2 (T9)&lt;/div&gt;&lt;div&gt;AN3(J14)&lt;/div&gt;&lt;div&gt;AN4 (P14)&lt;/div&gt;&lt;div&gt;AN5 (T14)&lt;/div&gt;&lt;div&gt;AN6 (K2)&lt;/div&gt;&lt;div&gt;ANT(U13)&lt;/div&gt;" style="rounded=1;whiteSpace=wrap;html=1;" vertex="1" parent="1">
          <mxGeometry x="1090" y="810" width="80" height="110" as="geometry" />
        </mxCell>
        <mxCell id="MK-3uhewQqFmc1FHeEV7-27" value="&lt;div&gt;LDO (H17) - y_bo[0]&lt;/div&gt;&lt;div&gt;LD1 (K15) - y_bo[1]&lt;/div&gt;&lt;div&gt;LD2 (J13) - y_bo[2]&lt;/div&gt;&lt;div&gt;LD3 (N14) - y_bo[3]&lt;/div&gt;&lt;div&gt;LD4 (R18) - y_bo[4]&lt;/div&gt;&lt;div&gt;LD5 (V17) - y_bo(5]&lt;/div&gt;&lt;div&gt;LD6 (U17) - y_bo[6]&lt;/div&gt;&lt;div&gt;LD7 (U16) - y_bo[7]&lt;/div&gt;&lt;div&gt;LD8 (V16) - y_bo[8]&lt;/div&gt;&lt;div&gt;LD9 (T15) - y_bo[9]&lt;/div&gt;&lt;div&gt;LD10 (U14) - y_bo[10]&lt;/div&gt;&lt;div&gt;LD11 (T16) - y_bo[11]&lt;/div&gt;&lt;div&gt;LD12 (V15) - y_bo[12]&lt;/div&gt;" style="rounded=1;whiteSpace=wrap;html=1;" vertex="1" parent="1">
          <mxGeometry x="1060" y="460" width="130" height="200" as="geometry" />
        </mxCell>
        <mxCell id="MK-3uhewQqFmc1FHeEV7-28" value="" style="endArrow=none;html=1;rounded=0;exitX=1;exitY=0.5;exitDx=0;exitDy=0;entryX=0.02;entryY=0.069;entryDx=0;entryDy=0;entryPerimeter=0;" edge="1" parent="1" source="MK-3uhewQqFmc1FHeEV7-17" target="MK-3uhewQqFmc1FHeEV7-1">
          <mxGeometry width="50" height="50" relative="1" as="geometry">
            <mxPoint x="400" y="660" as="sourcePoint" />
            <mxPoint x="450" y="610" as="targetPoint" />
          </mxGeometry>
        </mxCell>
        <mxCell id="MK-3uhewQqFmc1FHeEV7-29" value="" style="endArrow=none;html=1;rounded=0;" edge="1" parent="1" source="MK-3uhewQqFmc1FHeEV7-18">
          <mxGeometry width="50" height="50" relative="1" as="geometry">
            <mxPoint x="140" y="479.58" as="sourcePoint" />
            <mxPoint x="230" y="480" as="targetPoint" />
          </mxGeometry>
        </mxCell>
        <mxCell id="MK-3uhewQqFmc1FHeEV7-31" style="edgeStyle=orthogonalEdgeStyle;rounded=0;orthogonalLoop=1;jettySize=auto;html=1;entryX=-0.002;entryY=0.294;entryDx=0;entryDy=0;entryPerimeter=0;endArrow=none;endFill=0;" edge="1" parent="1" source="MK-3uhewQqFmc1FHeEV7-19" target="MK-3uhewQqFmc1FHeEV7-1">
          <mxGeometry relative="1" as="geometry" />
        </mxCell>
        <mxCell id="MK-3uhewQqFmc1FHeEV7-33" value="test_button" style="text;html=1;align=center;verticalAlign=middle;resizable=0;points=[];autosize=1;strokeColor=none;fillColor=none;" vertex="1" parent="1">
          <mxGeometry x="150" y="395" width="80" height="30" as="geometry" />
        </mxCell>
        <mxCell id="MK-3uhewQqFmc1FHeEV7-34" value="clk_i" style="text;html=1;align=center;verticalAlign=middle;resizable=0;points=[];autosize=1;strokeColor=none;fillColor=none;" vertex="1" parent="1">
          <mxGeometry x="165" y="458" width="50" height="30" as="geometry" />
        </mxCell>
        <mxCell id="MK-3uhewQqFmc1FHeEV7-35" value="rst_i" style="text;html=1;align=center;verticalAlign=middle;resizable=0;points=[];autosize=1;strokeColor=none;fillColor=none;" vertex="1" parent="1">
          <mxGeometry x="165" y="518" width="50" height="30" as="geometry" />
        </mxCell>
        <mxCell id="MK-3uhewQqFmc1FHeEV7-36" value="start_i" style="text;html=1;align=center;verticalAlign=middle;resizable=0;points=[];autosize=1;strokeColor=none;fillColor=none;" vertex="1" parent="1">
          <mxGeometry x="150" y="578" width="60" height="30" as="geometry" />
        </mxCell>
        <mxCell id="MK-3uhewQqFmc1FHeEV7-37" style="edgeStyle=orthogonalEdgeStyle;rounded=0;orthogonalLoop=1;jettySize=auto;html=1;exitX=0;exitY=0.5;exitDx=0;exitDy=0;entryX=0.976;entryY=0.067;entryDx=0;entryDy=0;entryPerimeter=0;endArrow=none;endFill=0;" edge="1" parent="1" source="MK-3uhewQqFmc1FHeEV7-21" target="MK-3uhewQqFmc1FHeEV7-1">
          <mxGeometry relative="1" as="geometry" />
        </mxCell>
        <mxCell id="MK-3uhewQqFmc1FHeEV7-38" value="busy_o" style="text;html=1;align=center;verticalAlign=middle;resizable=0;points=[];autosize=1;strokeColor=none;fillColor=none;" vertex="1" parent="1">
          <mxGeometry x="930" y="398" width="60" height="30" as="geometry" />
        </mxCell>
        <mxCell id="MK-3uhewQqFmc1FHeEV7-41" value="b_bi" style="text;html=1;align=center;verticalAlign=middle;resizable=0;points=[];autosize=1;strokeColor=none;fillColor=none;" vertex="1" parent="1">
          <mxGeometry x="185" y="698" width="50" height="30" as="geometry" />
        </mxCell>
        <mxCell id="MK-3uhewQqFmc1FHeEV7-42" value="a_bi" style="text;html=1;align=center;verticalAlign=middle;resizable=0;points=[];autosize=1;strokeColor=none;fillColor=none;" vertex="1" parent="1">
          <mxGeometry x="185" y="848" width="50" height="30" as="geometry" />
        </mxCell>
        <mxCell id="MK-3uhewQqFmc1FHeEV7-47" style="edgeStyle=orthogonalEdgeStyle;rounded=0;orthogonalLoop=1;jettySize=auto;html=1;exitX=1;exitY=0.5;exitDx=0;exitDy=0;entryX=0.294;entryY=1.016;entryDx=0;entryDy=0;entryPerimeter=0;endArrow=none;endFill=0;" edge="1" parent="1" source="MK-3uhewQqFmc1FHeEV7-8" target="MK-3uhewQqFmc1FHeEV7-12">
          <mxGeometry relative="1" as="geometry" />
        </mxCell>
        <mxCell id="MK-3uhewQqFmc1FHeEV7-52" value="y_bo" style="text;html=1;align=center;verticalAlign=middle;resizable=0;points=[];autosize=1;strokeColor=none;fillColor=none;" vertex="1" parent="1">
          <mxGeometry x="910" y="660" width="50" height="30" as="geometry" />
        </mxCell>
        <mxCell id="MK-3uhewQqFmc1FHeEV7-54" value="clk_i" style="text;html=1;align=center;verticalAlign=middle;resizable=0;points=[];autosize=1;strokeColor=none;fillColor=none;" vertex="1" parent="1">
          <mxGeometry x="905" y="848" width="50" height="30" as="geometry" />
        </mxCell>
        <mxCell id="MK-3uhewQqFmc1FHeEV7-57" style="edgeStyle=orthogonalEdgeStyle;rounded=0;orthogonalLoop=1;jettySize=auto;html=1;exitX=1;exitY=0.75;exitDx=0;exitDy=0;entryX=0.006;entryY=0.562;entryDx=0;entryDy=0;entryPerimeter=0;endArrow=none;endFill=0;" edge="1" parent="1" source="MK-3uhewQqFmc1FHeEV7-24" target="MK-3uhewQqFmc1FHeEV7-26">
          <mxGeometry relative="1" as="geometry" />
        </mxCell>
      </root>
    </mxGraphModel>
  </diagram>
</mxfile>
